<svg xmlns="http://www.w3.org/2000/svg" xmlns:xlink="http://www.w3.org/1999/xlink" width="76" zoomAndPan="magnify" viewBox="0 0 56.879997 56.999997" height="76" preserveAspectRatio="xMidYMid meet" version="1.0"><defs><clipPath id="9f900d4a01"><path d="M 12 6 L 29 6 L 29 35 L 12 35 Z M 12 6 " clip-rule="nonzero"/></clipPath><clipPath id="3b0f0f21b2"><path d="M 33.972656 31.925781 L 20.105469 37.289062 L 9.378906 9.558594 L 23.246094 4.195312 Z M 33.972656 31.925781 " clip-rule="nonzero"/></clipPath><clipPath id="b2f2b189fe"><path d="M 33.972656 31.925781 L 20.105469 37.289062 L 9.378906 9.558594 L 23.246094 4.195312 Z M 33.972656 31.925781 " clip-rule="nonzero"/></clipPath><clipPath id="b8f6b28d9e"><path d="M 25 6 L 46 6 L 46 35 L 25 35 Z M 25 6 " clip-rule="nonzero"/></clipPath><clipPath id="eb22d139a7"><path d="M 32.453125 38.625 L 19.359375 30.679688 L 35.71875 3.71875 L 48.8125 11.664062 Z M 32.453125 38.625 " clip-rule="nonzero"/></clipPath><clipPath id="167f010e18"><path d="M 32.453125 38.625 L 19.359375 30.679688 L 35.71875 3.71875 L 48.8125 11.664062 Z M 32.453125 38.625 " clip-rule="nonzero"/></clipPath><clipPath id="34fa73adac"><path d="M 30 12 L 36 12 L 36 16 L 30 16 Z M 30 12 " clip-rule="nonzero"/></clipPath><clipPath id="6b08575a53"><path d="M 16.996094 10.757812 L 40.34375 12.652344 L 39.070312 28.371094 L 15.71875 26.476562 Z M 16.996094 10.757812 " clip-rule="nonzero"/></clipPath><clipPath id="d0cd28bfa7"><path d="M 16.996094 10.757812 L 40.34375 12.652344 L 39.070312 28.371094 L 15.71875 26.476562 Z M 16.996094 10.757812 " clip-rule="nonzero"/></clipPath><clipPath id="392a4f6906"><path d="M 16 18 L 40 18 L 40 28 L 16 28 Z M 16 18 " clip-rule="nonzero"/></clipPath><clipPath id="84d442c356"><path d="M 16.996094 10.757812 L 40.34375 12.652344 L 39.070312 28.371094 L 15.71875 26.476562 Z M 16.996094 10.757812 " clip-rule="nonzero"/></clipPath><clipPath id="d8125520d2"><path d="M 16.996094 10.757812 L 40.34375 12.652344 L 39.070312 28.371094 L 15.71875 26.476562 Z M 16.996094 10.757812 " clip-rule="nonzero"/></clipPath><clipPath id="447153f457"><path d="M 22 12 L 24 12 L 24 17 L 22 17 Z M 22 12 " clip-rule="nonzero"/></clipPath><clipPath id="e76227e478"><path d="M 16.996094 10.757812 L 40.34375 12.652344 L 39.070312 28.371094 L 15.71875 26.476562 Z M 16.996094 10.757812 " clip-rule="nonzero"/></clipPath><clipPath id="4ec5012c56"><path d="M 16.996094 10.757812 L 40.34375 12.652344 L 39.070312 28.371094 L 15.71875 26.476562 Z M 16.996094 10.757812 " clip-rule="nonzero"/></clipPath><clipPath id="91fcf93d60"><path d="M 7.136719 1.054688 L 49.433594 1.054688 L 49.433594 55.566406 L 7.136719 55.566406 Z M 7.136719 1.054688 " clip-rule="nonzero"/></clipPath></defs><g clip-path="url(#9f900d4a01)"><g clip-path="url(#3b0f0f21b2)"><g clip-path="url(#b2f2b189fe)"><path fill="#27aae1" d="M 13.375 19.28125 C 11.066406 13.308594 12.691406 8.421875 16.464844 6.960938 C 20.238281 5.503906 24.726562 8.023438 27.039062 13.996094 C 28.996094 19.058594 27.84375 30.648438 27.445312 34.074219 C 27.421875 34.28125 27.308594 34.425781 27.113281 34.5 C 26.917969 34.574219 26.742188 34.542969 26.585938 34.40625 C 23.984375 32.140625 15.332031 24.339844 13.375 19.28125 Z M 13.375 19.28125 " fill-opacity="1" fill-rule="nonzero"/></g></g></g><g clip-path="url(#b8f6b28d9e)"><g clip-path="url(#eb22d139a7)"><g clip-path="url(#167f010e18)"><path fill="#f89de7" d="M 29.75 13.160156 C 33.269531 7.359375 38.425781 5.5625 42.089844 7.789062 C 45.753906 10.011719 46.539062 15.410156 43.019531 21.210938 C 40.039062 26.125 29.566406 32.652344 26.429688 34.535156 C 26.238281 34.648438 26.050781 34.648438 25.859375 34.53125 C 25.671875 34.417969 25.582031 34.25 25.59375 34.027344 C 25.816406 30.378906 26.769531 18.074219 29.75 13.160156 Z M 29.75 13.160156 " fill-opacity="1" fill-rule="nonzero"/></g></g></g><g clip-path="url(#34fa73adac)"><g clip-path="url(#6b08575a53)"><g clip-path="url(#d0cd28bfa7)"><path fill="#004aad" d="M 32.816406 12.242188 C 31.941406 12.765625 31.398438 13.769531 31.003906 14.675781 C 30.839844 15.042969 31.074219 15.542969 31.488281 15.582031 C 32.167969 15.65625 32.847656 15.71875 33.519531 15.78125 C 34.125 15.847656 34.929688 16.035156 35.5 15.792969 C 35.84375 15.648438 35.886719 15.230469 35.625 14.988281 C 35.148438 14.550781 34.269531 14.503906 33.65625 14.429688 C 32.945312 14.347656 32.230469 14.296875 31.519531 14.296875 C 31.742188 14.597656 31.964844 14.902344 32.179688 15.203125 C 32.476562 14.308594 33 13.535156 33.34375 12.664062 C 33.488281 12.320312 33.113281 12.066406 32.816406 12.242188 Z M 32.816406 12.242188 " fill-opacity="1" fill-rule="nonzero"/></g></g></g><g clip-path="url(#392a4f6906)"><g clip-path="url(#84d442c356)"><g clip-path="url(#d8125520d2)"><path fill="#004aad" d="M 16.425781 20.136719 C 17.027344 21.921875 18.417969 23.261719 19.953125 24.28125 C 21.664062 25.410156 23.578125 26.226562 25.570312 26.683594 C 29.4375 27.566406 33.644531 26.859375 36.683594 24.21875 C 38.183594 22.910156 39.425781 21.140625 39.679688 19.128906 C 39.746094 18.621094 39.035156 18.398438 38.816406 18.878906 C 38.15625 20.300781 37.304688 21.621094 36.136719 22.6875 C 34.980469 23.742188 33.621094 24.507812 32.125 24.96875 C 28.566406 26.078125 24.519531 25.277344 21.300781 23.546875 C 19.617188 22.625 18.195312 21.332031 17.042969 19.800781 C 16.785156 19.472656 16.300781 19.765625 16.425781 20.136719 Z M 16.425781 20.136719 " fill-opacity="1" fill-rule="nonzero"/></g></g></g><g clip-path="url(#447153f457)"><g clip-path="url(#e76227e478)"><g clip-path="url(#4ec5012c56)"><path fill="#004aad" d="M 22.710938 12.371094 C 22.152344 13.390625 21.964844 14.769531 22.234375 15.90625 C 22.355469 16.386719 23.160156 16.535156 23.199219 15.925781 C 23.246094 15.34375 23.230469 14.757812 23.242188 14.171875 C 23.257812 13.59375 23.292969 13.027344 23.273438 12.457031 C 23.269531 12.140625 22.839844 12.140625 22.710938 12.371094 Z M 22.710938 12.371094 " fill-opacity="1" fill-rule="nonzero"/></g></g></g><g clip-path="url(#91fcf93d60)"><path fill="#004aad" d="M 7.414062 17.414062 C 7.785156 19.675781 8.570312 21.8125 9.496094 23.816406 C 9.964844 24.820312 10.476562 25.789062 10.984375 26.738281 C 11.238281 27.207031 11.484375 27.679688 11.722656 28.140625 C 11.960938 28.601562 12.1875 29.058594 12.355469 29.484375 L 12.375 29.535156 L 12.382812 29.558594 C 12.59375 30.035156 12.769531 30.535156 12.882812 31.066406 C 12.988281 31.601562 13.066406 32.148438 13.09375 32.714844 C 13.15625 33.855469 13.078125 35.042969 12.976562 36.25 C 12.761719 38.671875 12.476562 41.195312 12.652344 43.742188 C 12.734375 45.011719 12.945312 46.285156 13.289062 47.519531 C 13.628906 48.75 14.128906 49.933594 14.730469 51.042969 C 14.886719 51.320312 15.035156 51.601562 15.207031 51.863281 C 15.378906 52.125 15.535156 52.402344 15.726562 52.652344 C 15.914062 52.90625 16.09375 53.160156 16.285156 53.40625 C 16.476562 53.65625 16.679688 53.898438 16.890625 54.132812 C 17.320312 54.59375 17.785156 55.050781 18.371094 55.335938 C 18.660156 55.480469 18.980469 55.570312 19.296875 55.589844 C 19.613281 55.613281 19.925781 55.558594 20.226562 55.476562 C 19.917969 55.511719 19.609375 55.511719 19.316406 55.449219 C 19.023438 55.394531 18.753906 55.269531 18.507812 55.105469 C 18.261719 54.941406 18.046875 54.738281 17.847656 54.519531 C 17.644531 54.300781 17.464844 54.0625 17.289062 53.820312 C 17.117188 53.574219 16.953125 53.320312 16.800781 53.058594 C 16.644531 52.800781 16.5 52.53125 16.351562 52.269531 C 16.066406 51.738281 15.792969 51.203125 15.5625 50.644531 C 14.621094 48.4375 14.207031 46.070312 14.222656 43.699219 C 14.230469 42.511719 14.328125 41.316406 14.472656 40.121094 C 14.621094 38.921875 14.808594 37.714844 14.972656 36.476562 C 15.054688 35.859375 15.128906 35.238281 15.183594 34.597656 C 15.242188 33.960938 15.265625 33.308594 15.261719 32.648438 C 15.25 31.988281 15.191406 31.3125 15.074219 30.632812 C 14.941406 29.953125 14.742188 29.277344 14.464844 28.621094 L 14.496094 28.699219 C 14.289062 28.117188 14.046875 27.605469 13.808594 27.105469 C 13.566406 26.605469 13.316406 26.125 13.078125 25.648438 C 12.589844 24.695312 12.117188 23.757812 11.691406 22.8125 C 11.261719 21.867188 10.871094 20.910156 10.550781 19.945312 C 10.234375 18.976562 9.976562 17.996094 9.808594 17.007812 C 9.46875 15.039062 9.484375 13.027344 9.910156 11.085938 C 10.347656 9.160156 11.113281 7.230469 12.316406 5.796875 C 12.925781 5.09375 13.648438 4.511719 14.484375 4.152344 C 15.3125 3.769531 16.246094 3.617188 17.199219 3.632812 C 18.15625 3.652344 19.132812 3.847656 20.070312 4.175781 C 20.542969 4.339844 21 4.535156 21.441406 4.761719 C 21.660156 4.878906 21.875 4.996094 22.082031 5.128906 L 22.398438 5.339844 L 22.734375 5.566406 C 23.636719 6.167969 24.570312 6.789062 25.636719 7.226562 C 26.695312 7.683594 27.925781 7.835938 29.050781 7.652344 C 30.183594 7.460938 31.207031 7 32.15625 6.464844 L 32.855469 6.046875 C 33.082031 5.898438 33.300781 5.738281 33.519531 5.585938 C 33.964844 5.277344 34.40625 4.96875 34.839844 4.65625 C 34.359375 4.890625 33.878906 5.136719 33.394531 5.378906 C 33.15625 5.496094 32.917969 5.625 32.679688 5.738281 L 31.953125 6.054688 C 30.976562 6.460938 29.960938 6.757812 28.957031 6.820312 C 28.457031 6.832031 27.960938 6.816406 27.484375 6.691406 C 27.242188 6.652344 27.011719 6.554688 26.78125 6.484375 C 26.664062 6.441406 26.554688 6.382812 26.445312 6.335938 C 26.335938 6.285156 26.21875 6.238281 26.113281 6.171875 C 25.234375 5.703125 24.40625 5.074219 23.578125 4.410156 L 23.265625 4.160156 L 23.105469 4.035156 L 22.929688 3.902344 C 22.691406 3.722656 22.453125 3.5625 22.207031 3.410156 C 21.714844 3.105469 21.207031 2.84375 20.675781 2.617188 C 19.617188 2.167969 18.484375 1.859375 17.296875 1.761719 C 16.113281 1.671875 14.867188 1.8125 13.710938 2.265625 C 12.546875 2.703125 11.53125 3.46875 10.699219 4.347656 C 9.882812 5.242188 9.257812 6.257812 8.761719 7.308594 C 8.269531 8.355469 7.886719 9.4375 7.621094 10.558594 C 7.351562 11.679688 7.199219 12.828125 7.167969 13.984375 C 7.136719 15.132812 7.226562 16.289062 7.414062 17.414062 Z M 46.640625 10.519531 C 46.585938 10.308594 46.542969 10.09375 46.492188 9.886719 L 46.320312 9.269531 C 46.292969 9.164062 46.253906 9.078125 46.226562 8.980469 L 46.109375 8.683594 C 46.027344 8.484375 45.953125 8.285156 45.859375 8.089844 C 45.503906 7.3125 45.074219 6.570312 44.5625 5.902344 C 44.046875 5.234375 43.449219 4.636719 42.773438 4.136719 C 42.097656 3.636719 41.34375 3.246094 40.539062 2.96875 C 39.734375 2.6875 38.878906 2.53125 38.007812 2.472656 C 37.132812 2.414062 36.242188 2.460938 35.355469 2.582031 C 34.464844 2.707031 33.574219 2.90625 32.699219 3.160156 C 31.816406 3.414062 30.949219 3.71875 30.097656 4.070312 C 29.238281 4.414062 28.394531 4.800781 27.550781 5.203125 C 29.066406 4.117188 30.691406 3.164062 32.433594 2.417969 C 34.179688 1.683594 36.0625 1.152344 38.035156 1.105469 C 39.019531 1.078125 40.023438 1.183594 41 1.4375 C 41.976562 1.6875 42.925781 2.101562 43.785156 2.65625 C 44.648438 3.203125 45.417969 3.890625 46.082031 4.660156 C 46.742188 5.429688 47.304688 6.277344 47.753906 7.175781 C 47.871094 7.398438 47.976562 7.628906 48.078125 7.855469 L 48.226562 8.203125 C 48.273438 8.320312 48.332031 8.453125 48.371094 8.570312 L 48.605469 9.289062 C 48.679688 9.527344 48.742188 9.765625 48.804688 10 C 49.042969 10.957031 49.214844 11.929688 49.3125 12.910156 C 49.414062 13.890625 49.433594 14.878906 49.386719 15.859375 C 49.339844 16.839844 49.230469 17.8125 49.0625 18.773438 C 48.722656 20.695312 48.179688 22.554688 47.503906 24.347656 C 47.167969 25.242188 46.808594 26.117188 46.441406 26.980469 C 46.070312 27.839844 45.6875 28.691406 45.375 29.496094 L 45.355469 29.550781 L 45.34375 29.574219 C 44.914062 30.511719 44.695312 31.582031 44.644531 32.714844 C 44.589844 33.851562 44.664062 35.039062 44.769531 36.246094 C 44.984375 38.660156 45.273438 41.191406 45.09375 43.746094 C 45.003906 45.023438 44.808594 46.296875 44.457031 47.53125 C 44.28125 48.148438 44.074219 48.753906 43.832031 49.347656 C 43.585938 49.9375 43.304688 50.511719 42.996094 51.0625 C 42.378906 52.175781 41.671875 53.203125 40.820312 54.148438 C 40.386719 54.609375 39.914062 55.0625 39.328125 55.34375 C 39.035156 55.488281 38.714844 55.582031 38.398438 55.59375 C 38.078125 55.613281 37.769531 55.558594 37.46875 55.46875 C 37.777344 55.503906 38.085938 55.503906 38.378906 55.441406 C 38.671875 55.378906 38.941406 55.253906 39.183594 55.089844 C 39.664062 54.753906 40.050781 54.292969 40.390625 53.800781 C 40.730469 53.308594 41.03125 52.78125 41.324219 52.25 C 41.613281 51.722656 41.878906 51.179688 42.109375 50.628906 C 42.570312 49.523438 42.90625 48.382812 43.121094 47.21875 C 43.335938 46.054688 43.4375 44.878906 43.425781 43.695312 C 43.425781 41.316406 43.007812 38.949219 42.675781 36.484375 C 42.515625 35.246094 42.367188 33.976562 42.398438 32.648438 C 42.421875 31.34375 42.617188 29.960938 43.179688 28.664062 C 43.515625 27.742188 43.882812 26.898438 44.230469 26.054688 C 44.582031 25.203125 44.925781 24.359375 45.234375 23.507812 C 45.851562 21.8125 46.375 20.097656 46.691406 18.355469 C 47.015625 16.621094 47.148438 14.855469 47.023438 13.113281 C 46.953125 12.238281 46.828125 11.371094 46.640625 10.519531 Z M 21.558594 54.070312 C 21.746094 53.609375 21.847656 53.109375 21.898438 52.601562 C 22.003906 51.59375 21.996094 50.558594 21.960938 49.523438 C 21.894531 47.445312 21.765625 45.363281 21.722656 43.230469 C 21.710938 42.675781 21.738281 42.117188 21.789062 41.558594 C 21.847656 41 21.925781 40.441406 22.050781 39.890625 C 22.289062 38.78125 22.671875 37.699219 23.1875 36.671875 C 23.707031 35.640625 24.375 34.683594 25.203125 33.828125 C 25.625 33.402344 26.082031 33.007812 26.632812 32.664062 C 26.90625 32.488281 27.203125 32.332031 27.5625 32.195312 C 27.738281 32.128906 27.941406 32.070312 28.175781 32.03125 C 28.289062 32.015625 28.457031 32.003906 28.550781 32.003906 L 28.96875 32.003906 C 29.105469 32.007812 29.246094 32.023438 29.351562 32.042969 L 29.519531 32.078125 L 29.667969 32.121094 C 29.769531 32.148438 29.859375 32.183594 29.945312 32.214844 C 30.296875 32.351562 30.589844 32.515625 30.867188 32.6875 C 31.40625 33.039062 31.867188 33.433594 32.285156 33.855469 C 33.113281 34.726562 33.777344 35.6875 34.296875 36.714844 C 35.324219 38.773438 35.78125 41.058594 35.742188 43.28125 C 35.699219 45.410156 35.546875 47.503906 35.449219 49.578125 C 35.40625 50.613281 35.382812 51.644531 35.488281 52.644531 C 35.550781 53.148438 35.652344 53.640625 35.863281 54.09375 C 36.054688 54.554688 36.398438 54.949219 36.832031 55.253906 C 36.332031 55.082031 35.875 54.734375 35.546875 54.28125 C 35.378906 54.0625 35.242188 53.816406 35.128906 53.566406 C 35.007812 53.316406 34.917969 53.054688 34.828125 52.796875 C 34.503906 51.746094 34.367188 50.675781 34.253906 49.617188 C 34.039062 47.5 33.96875 45.398438 33.824219 43.332031 C 33.683594 41.367188 33.167969 39.457031 32.246094 37.796875 C 31.785156 36.96875 31.226562 36.203125 30.578125 35.570312 C 30.253906 35.25 29.914062 34.96875 29.566406 34.75 C 29.398438 34.644531 29.226562 34.558594 29.085938 34.503906 C 29.050781 34.492188 29.019531 34.480469 28.996094 34.476562 L 28.957031 34.460938 C 28.945312 34.460938 28.941406 34.460938 28.933594 34.457031 C 28.925781 34.457031 28.921875 34.453125 28.921875 34.453125 L 28.554688 34.453125 C 28.550781 34.453125 28.546875 34.453125 28.546875 34.453125 C 28.546875 34.453125 28.546875 34.457031 28.546875 34.453125 C 28.546875 34.453125 28.550781 34.453125 28.550781 34.453125 C 28.546875 34.453125 28.546875 34.453125 28.546875 34.453125 C 28.523438 34.457031 28.46875 34.46875 28.402344 34.492188 C 28.269531 34.539062 28.097656 34.621094 27.925781 34.726562 C 27.585938 34.933594 27.238281 35.226562 26.917969 35.535156 C 26.261719 36.164062 25.703125 36.933594 25.238281 37.757812 C 24.308594 39.414062 23.785156 41.324219 23.640625 43.285156 C 23.496094 45.347656 23.398438 47.460938 23.160156 49.574219 C 23.027344 50.625 22.886719 51.699219 22.558594 52.742188 C 22.394531 53.261719 22.1875 53.78125 21.878906 54.242188 C 21.566406 54.699219 21.128906 55.085938 20.625 55.25 C 21.070312 54.960938 21.378906 54.535156 21.558594 54.070312 Z M 28.921875 34.453125 C 28.917969 34.457031 28.914062 34.453125 28.921875 34.453125 Z M 28.921875 34.453125 " fill-opacity="1" fill-rule="nonzero"/></g></svg>