<svg xmlns="http://www.w3.org/2000/svg" xmlns:xlink="http://www.w3.org/1999/xlink" width="227" zoomAndPan="magnify" viewBox="0 0 170.25 84.749997" height="113" preserveAspectRatio="xMidYMid meet" version="1.0"><defs><g/><clipPath id="c1fdae930d"><path d="M 14 15 L 35 15 L 35 51 L 14 51 Z M 14 15 " clip-rule="nonzero"/></clipPath><clipPath id="4f387970ac"><path d="M 42.132812 47.257812 L 24.738281 53.984375 L 11.28125 19.195312 L 28.675781 12.46875 Z M 42.132812 47.257812 " clip-rule="nonzero"/></clipPath><clipPath id="4770107244"><path d="M 42.132812 47.257812 L 24.738281 53.984375 L 11.28125 19.195312 L 28.675781 12.46875 Z M 42.132812 47.257812 " clip-rule="nonzero"/></clipPath><clipPath id="fbf8cd9fb5"><path d="M 31 15 L 57 15 L 57 51 L 31 51 Z M 31 15 " clip-rule="nonzero"/></clipPath><clipPath id="4d56554f56"><path d="M 40.226562 55.65625 L 23.800781 45.6875 L 44.324219 11.867188 L 60.75 21.835938 Z M 40.226562 55.65625 " clip-rule="nonzero"/></clipPath><clipPath id="503a9f195c"><path d="M 40.226562 55.65625 L 23.800781 45.6875 L 44.324219 11.867188 L 60.75 21.835938 Z M 40.226562 55.65625 " clip-rule="nonzero"/></clipPath><clipPath id="a7d37b55ca"><path d="M 38 22 L 45 22 L 45 28 L 38 28 Z M 38 22 " clip-rule="nonzero"/></clipPath><clipPath id="3b057771e9"><path d="M 20.835938 20.703125 L 50.128906 23.078125 L 48.527344 42.796875 L 19.234375 40.417969 Z M 20.835938 20.703125 " clip-rule="nonzero"/></clipPath><clipPath id="62a55397e8"><path d="M 20.835938 20.703125 L 50.128906 23.078125 L 48.527344 42.796875 L 19.234375 40.417969 Z M 20.835938 20.703125 " clip-rule="nonzero"/></clipPath><clipPath id="b775a18244"><path d="M 20 30 L 50 30 L 50 42 L 20 42 Z M 20 30 " clip-rule="nonzero"/></clipPath><clipPath id="94d49e7f7a"><path d="M 20.835938 20.703125 L 50.128906 23.078125 L 48.527344 42.796875 L 19.234375 40.417969 Z M 20.835938 20.703125 " clip-rule="nonzero"/></clipPath><clipPath id="7dde1f9b97"><path d="M 20.835938 20.703125 L 50.128906 23.078125 L 48.527344 42.796875 L 19.234375 40.417969 Z M 20.835938 20.703125 " clip-rule="nonzero"/></clipPath><clipPath id="4f5e74ef4a"><path d="M 27 22 L 29 22 L 29 28 L 27 28 Z M 27 22 " clip-rule="nonzero"/></clipPath><clipPath id="c48ea3f744"><path d="M 20.835938 20.703125 L 50.128906 23.078125 L 48.527344 42.796875 L 19.234375 40.417969 Z M 20.835938 20.703125 " clip-rule="nonzero"/></clipPath><clipPath id="02d1a54f3c"><path d="M 20.835938 20.703125 L 50.128906 23.078125 L 48.527344 42.796875 L 19.234375 40.417969 Z M 20.835938 20.703125 " clip-rule="nonzero"/></clipPath><clipPath id="1ee8a318f0"><path d="M 8.464844 8.527344 L 61.53125 8.527344 L 61.53125 76.910156 L 8.464844 76.910156 Z M 8.464844 8.527344 " clip-rule="nonzero"/></clipPath></defs><g clip-path="url(#c1fdae930d)"><g clip-path="url(#4f387970ac)"><g clip-path="url(#4770107244)"><path fill="#27aae1" d="M 16.296875 31.394531 C 13.398438 23.898438 15.4375 17.769531 20.167969 15.941406 C 24.902344 14.109375 30.535156 17.273438 33.433594 24.765625 C 35.886719 31.113281 34.445312 45.652344 33.945312 49.949219 C 33.914062 50.210938 33.777344 50.390625 33.53125 50.484375 C 33.285156 50.578125 33.0625 50.539062 32.863281 50.367188 C 29.601562 47.523438 18.75 37.742188 16.296875 31.394531 Z M 16.296875 31.394531 " fill-opacity="1" fill-rule="nonzero"/></g></g></g><g clip-path="url(#fbf8cd9fb5)"><g clip-path="url(#4d56554f56)"><g clip-path="url(#503a9f195c)"><path fill="#f89de7" d="M 36.835938 23.714844 C 41.253906 16.4375 47.71875 14.183594 52.3125 16.972656 C 56.910156 19.761719 57.898438 26.539062 53.480469 33.816406 C 49.742188 39.980469 36.601562 48.167969 32.671875 50.527344 C 32.433594 50.671875 32.195312 50.667969 31.957031 50.523438 C 31.71875 50.378906 31.605469 50.167969 31.625 49.890625 C 31.902344 45.3125 33.097656 29.878906 36.835938 23.714844 Z M 36.835938 23.714844 " fill-opacity="1" fill-rule="nonzero"/></g></g></g><g clip-path="url(#a7d37b55ca)"><g clip-path="url(#3b057771e9)"><g clip-path="url(#62a55397e8)"><path fill="#004aad" d="M 40.683594 22.5625 C 39.585938 23.21875 38.902344 24.476562 38.40625 25.617188 C 38.203125 26.078125 38.496094 26.703125 39.019531 26.753906 C 39.871094 26.84375 40.722656 26.925781 41.566406 27.003906 C 42.328125 27.085938 43.332031 27.320312 44.050781 27.019531 C 44.480469 26.835938 44.53125 26.3125 44.207031 26.003906 C 43.609375 25.460938 42.503906 25.402344 41.734375 25.308594 C 40.84375 25.203125 39.949219 25.140625 39.058594 25.140625 C 39.335938 25.515625 39.617188 25.902344 39.886719 26.277344 C 40.257812 25.15625 40.914062 24.183594 41.347656 23.089844 C 41.527344 22.660156 41.054688 22.34375 40.683594 22.5625 Z M 40.683594 22.5625 " fill-opacity="1" fill-rule="nonzero"/></g></g></g><g clip-path="url(#b775a18244)"><g clip-path="url(#94d49e7f7a)"><g clip-path="url(#7dde1f9b97)"><path fill="#004aad" d="M 20.125 32.46875 C 20.875 34.703125 22.621094 36.390625 24.546875 37.664062 C 26.691406 39.078125 29.09375 40.101562 31.59375 40.679688 C 36.441406 41.789062 41.722656 40.902344 45.53125 37.585938 C 47.414062 35.949219 48.972656 33.722656 49.292969 31.203125 C 49.375 30.566406 48.488281 30.289062 48.210938 30.886719 C 47.382812 32.671875 46.316406 34.324219 44.851562 35.667969 C 43.398438 36.988281 41.691406 37.949219 39.8125 38.53125 C 35.351562 39.917969 30.277344 38.914062 26.238281 36.746094 C 24.125 35.589844 22.34375 33.964844 20.894531 32.042969 C 20.574219 31.636719 19.964844 32 20.125 32.46875 Z M 20.125 32.46875 " fill-opacity="1" fill-rule="nonzero"/></g></g></g><g clip-path="url(#4f5e74ef4a)"><g clip-path="url(#c48ea3f744)"><g clip-path="url(#02d1a54f3c)"><path fill="#004aad" d="M 28.007812 22.722656 C 27.304688 24 27.070312 25.734375 27.410156 27.15625 C 27.558594 27.761719 28.566406 27.945312 28.621094 27.183594 C 28.679688 26.453125 28.65625 25.714844 28.671875 24.984375 C 28.691406 24.257812 28.738281 23.546875 28.714844 22.832031 C 28.703125 22.4375 28.164062 22.433594 28.007812 22.722656 Z M 28.007812 22.722656 " fill-opacity="1" fill-rule="nonzero"/></g></g></g><g clip-path="url(#1ee8a318f0)"><path fill="#004aad" d="M 8.816406 29.050781 C 9.28125 31.886719 10.265625 34.566406 11.429688 37.082031 C 12.015625 38.34375 12.660156 39.558594 13.292969 40.746094 C 13.613281 41.335938 13.921875 41.929688 14.222656 42.507812 C 14.519531 43.085938 14.804688 43.660156 15.015625 44.191406 L 15.039062 44.257812 L 15.050781 44.289062 C 15.316406 44.886719 15.535156 45.511719 15.679688 46.175781 C 15.8125 46.847656 15.90625 47.535156 15.945312 48.246094 C 16.023438 49.675781 15.917969 51.167969 15.792969 52.683594 C 15.527344 55.71875 15.164062 58.886719 15.386719 62.078125 C 15.492188 63.671875 15.757812 65.269531 16.183594 66.816406 C 16.613281 68.359375 17.242188 69.84375 17.996094 71.238281 C 18.1875 71.582031 18.375 71.9375 18.59375 72.265625 C 18.808594 72.597656 19.003906 72.941406 19.246094 73.253906 C 19.480469 73.574219 19.703125 73.894531 19.945312 74.203125 C 20.1875 74.515625 20.4375 74.816406 20.703125 75.113281 C 21.242188 75.691406 21.828125 76.265625 22.5625 76.621094 C 22.925781 76.800781 23.324219 76.917969 23.722656 76.941406 C 24.121094 76.972656 24.511719 76.898438 24.886719 76.796875 C 24.5 76.84375 24.113281 76.84375 23.746094 76.765625 C 23.378906 76.695312 23.039062 76.535156 22.734375 76.332031 C 22.425781 76.125 22.152344 75.875 21.90625 75.59375 C 21.652344 75.324219 21.421875 75.023438 21.207031 74.71875 C 20.988281 74.414062 20.785156 74.09375 20.589844 73.765625 C 20.398438 73.441406 20.214844 73.101562 20.027344 72.777344 C 19.671875 72.109375 19.328125 71.4375 19.039062 70.738281 C 17.855469 67.96875 17.335938 65 17.355469 62.023438 C 17.367188 60.53125 17.488281 59.035156 17.667969 57.535156 C 17.855469 56.03125 18.09375 54.515625 18.296875 52.964844 C 18.398438 52.1875 18.496094 51.410156 18.5625 50.605469 C 18.636719 49.808594 18.664062 48.988281 18.660156 48.160156 C 18.648438 47.335938 18.574219 46.484375 18.421875 45.632812 C 18.261719 44.78125 18.007812 43.933594 17.664062 43.109375 L 17.699219 43.207031 C 17.441406 42.476562 17.136719 41.835938 16.835938 41.210938 C 16.535156 40.582031 16.222656 39.980469 15.917969 39.382812 C 15.308594 38.1875 14.71875 37.011719 14.179688 35.820312 C 13.644531 34.636719 13.15625 33.4375 12.75 32.222656 C 12.351562 31.011719 12.03125 29.78125 11.820312 28.542969 C 11.394531 26.070312 11.410156 23.546875 11.949219 21.113281 C 12.496094 18.695312 13.457031 16.273438 14.964844 14.476562 C 15.730469 13.59375 16.636719 12.867188 17.6875 12.414062 C 18.726562 11.9375 19.894531 11.742188 21.089844 11.761719 C 22.292969 11.785156 23.515625 12.03125 24.695312 12.441406 C 25.285156 12.648438 25.859375 12.894531 26.414062 13.179688 C 26.683594 13.324219 26.957031 13.476562 27.214844 13.636719 L 27.410156 13.765625 L 27.613281 13.902344 L 28.035156 14.1875 C 29.164062 14.941406 30.335938 15.71875 31.675781 16.269531 C 33.003906 16.84375 34.546875 17.035156 35.960938 16.804688 C 37.378906 16.566406 38.664062 15.984375 39.851562 15.316406 L 40.734375 14.789062 C 41.019531 14.601562 41.289062 14.402344 41.566406 14.210938 C 42.121094 13.824219 42.675781 13.4375 43.21875 13.046875 C 42.617188 13.34375 42.011719 13.648438 41.410156 13.953125 C 41.109375 14.101562 40.8125 14.257812 40.511719 14.402344 L 39.597656 14.800781 C 38.375 15.308594 37.101562 15.683594 35.839844 15.761719 C 35.210938 15.773438 34.589844 15.757812 33.992188 15.597656 C 33.691406 15.550781 33.402344 15.429688 33.113281 15.339844 C 32.96875 15.285156 32.828125 15.210938 32.691406 15.152344 C 32.550781 15.09375 32.40625 15.03125 32.273438 14.949219 C 31.167969 14.363281 30.132812 13.570312 29.09375 12.738281 L 28.699219 12.425781 L 28.5 12.269531 L 28.277344 12.097656 C 27.984375 11.875 27.679688 11.675781 27.375 11.484375 C 26.757812 11.101562 26.117188 10.769531 25.453125 10.488281 C 24.125 9.925781 22.703125 9.539062 21.210938 9.414062 C 19.726562 9.304688 18.164062 9.480469 16.714844 10.046875 C 15.253906 10.597656 13.980469 11.554688 12.9375 12.660156 C 11.914062 13.78125 11.128906 15.054688 10.507812 16.371094 C 9.890625 17.6875 9.40625 19.042969 9.074219 20.449219 C 8.738281 21.855469 8.546875 23.300781 8.507812 24.746094 C 8.464844 26.191406 8.582031 27.636719 8.816406 29.050781 Z M 58.023438 20.402344 C 57.957031 20.136719 57.902344 19.867188 57.835938 19.605469 L 57.625 18.832031 C 57.589844 18.699219 57.539062 18.59375 57.503906 18.472656 L 57.359375 18.097656 C 57.257812 17.851562 57.160156 17.597656 57.046875 17.355469 C 56.597656 16.378906 56.0625 15.449219 55.417969 14.609375 C 54.769531 13.769531 54.023438 13.023438 53.171875 12.394531 C 52.328125 11.765625 51.378906 11.277344 50.371094 10.929688 C 49.363281 10.578125 48.289062 10.378906 47.195312 10.308594 C 46.097656 10.234375 44.980469 10.292969 43.867188 10.445312 C 42.75 10.601562 41.632812 10.851562 40.535156 11.167969 C 39.429688 11.488281 38.339844 11.871094 37.269531 12.308594 C 36.195312 12.746094 35.132812 13.226562 34.078125 13.734375 C 35.980469 12.371094 38.019531 11.175781 40.203125 10.242188 C 42.394531 9.316406 44.753906 8.652344 47.226562 8.59375 C 48.464844 8.554688 49.726562 8.6875 50.949219 9.007812 C 52.175781 9.324219 53.363281 9.84375 54.445312 10.535156 C 55.523438 11.222656 56.492188 12.085938 57.324219 13.050781 C 58.148438 14.019531 58.855469 15.078125 59.421875 16.207031 C 59.566406 16.484375 59.699219 16.777344 59.828125 17.058594 L 60.015625 17.492188 C 60.074219 17.644531 60.148438 17.808594 60.195312 17.957031 L 60.492188 18.859375 C 60.582031 19.160156 60.660156 19.457031 60.738281 19.75 C 61.039062 20.953125 61.25 22.171875 61.378906 23.402344 C 61.503906 24.632812 61.53125 25.871094 61.46875 27.101562 C 61.410156 28.332031 61.277344 29.550781 61.066406 30.757812 C 60.636719 33.164062 59.953125 35.5 59.109375 37.746094 C 58.6875 38.867188 58.234375 39.96875 57.777344 41.054688 C 57.3125 42.128906 56.828125 43.195312 56.4375 44.210938 L 56.410156 44.277344 L 56.398438 44.304688 C 55.855469 45.484375 55.585938 46.824219 55.519531 48.246094 C 55.453125 49.671875 55.542969 51.160156 55.675781 52.675781 C 55.949219 55.707031 56.308594 58.878906 56.085938 62.085938 C 55.972656 63.683594 55.722656 65.28125 55.285156 66.832031 C 55.066406 67.605469 54.808594 68.367188 54.5 69.109375 C 54.191406 69.851562 53.839844 70.570312 53.453125 71.261719 C 52.675781 72.65625 51.789062 73.949219 50.722656 75.132812 C 50.179688 75.710938 49.585938 76.277344 48.851562 76.632812 C 48.484375 76.816406 48.085938 76.929688 47.6875 76.949219 C 47.28125 76.972656 46.894531 76.898438 46.519531 76.789062 C 46.90625 76.832031 47.292969 76.832031 47.660156 76.753906 C 48.03125 76.675781 48.367188 76.519531 48.667969 76.3125 C 49.273438 75.890625 49.753906 75.3125 50.183594 74.695312 C 50.613281 74.082031 50.988281 73.417969 51.355469 72.753906 C 51.71875 72.089844 52.050781 71.40625 52.339844 70.71875 C 52.917969 69.332031 53.339844 67.902344 53.613281 66.441406 C 53.878906 64.980469 54.003906 63.503906 53.992188 62.019531 C 53.992188 59.035156 53.46875 56.066406 53.050781 52.972656 C 52.851562 51.421875 52.664062 49.828125 52.699219 48.160156 C 52.730469 46.527344 52.976562 44.789062 53.683594 43.164062 C 54.105469 42.007812 54.566406 40.949219 55 39.886719 C 55.441406 38.820312 55.875 37.765625 56.261719 36.695312 C 57.035156 34.566406 57.691406 32.417969 58.089844 30.234375 C 58.492188 28.054688 58.664062 25.839844 58.507812 23.65625 C 58.414062 22.558594 58.257812 21.472656 58.023438 20.402344 Z M 26.558594 75.035156 C 26.792969 74.453125 26.921875 73.828125 26.988281 73.195312 C 27.121094 71.925781 27.109375 70.628906 27.066406 69.332031 C 26.980469 66.726562 26.816406 64.113281 26.765625 61.4375 C 26.75 60.738281 26.789062 60.039062 26.847656 59.339844 C 26.921875 58.636719 27.023438 57.9375 27.179688 57.246094 C 27.476562 55.855469 27.957031 54.5 28.605469 53.207031 C 29.257812 51.914062 30.09375 50.714844 31.132812 49.640625 C 31.664062 49.109375 32.238281 48.613281 32.925781 48.179688 C 33.269531 47.964844 33.644531 47.765625 34.089844 47.59375 C 34.3125 47.511719 34.566406 47.4375 34.863281 47.390625 C 35 47.367188 35.210938 47.351562 35.332031 47.351562 L 35.859375 47.351562 C 36.027344 47.359375 36.203125 47.378906 36.335938 47.402344 L 36.546875 47.445312 L 36.734375 47.5 C 36.859375 47.535156 36.972656 47.578125 37.082031 47.617188 C 37.523438 47.789062 37.890625 47.992188 38.234375 48.210938 C 38.910156 48.652344 39.492188 49.144531 40.015625 49.675781 C 41.054688 50.769531 41.886719 51.976562 42.539062 53.261719 C 43.828125 55.84375 44.402344 58.710938 44.355469 61.5 C 44.300781 64.171875 44.105469 66.796875 43.988281 69.398438 C 43.933594 70.695312 43.902344 71.992188 44.035156 73.25 C 44.113281 73.875 44.238281 74.496094 44.503906 75.066406 C 44.746094 75.644531 45.175781 76.140625 45.71875 76.519531 C 45.089844 76.300781 44.519531 75.867188 44.105469 75.300781 C 43.894531 75.023438 43.726562 74.714844 43.582031 74.402344 C 43.429688 74.085938 43.316406 73.761719 43.207031 73.433594 C 42.796875 72.121094 42.628906 70.773438 42.484375 69.445312 C 42.21875 66.792969 42.128906 64.152344 41.945312 61.566406 C 41.773438 59.097656 41.125 56.699219 39.96875 54.621094 C 39.386719 53.582031 38.6875 52.621094 37.875 51.824219 C 37.46875 51.425781 37.039062 51.070312 36.605469 50.800781 C 36.394531 50.667969 36.179688 50.558594 36.003906 50.492188 C 35.960938 50.472656 35.917969 50.460938 35.886719 50.457031 L 35.839844 50.4375 C 35.828125 50.4375 35.820312 50.4375 35.808594 50.429688 C 35.804688 50.429688 35.796875 50.425781 35.796875 50.425781 L 35.339844 50.425781 C 35.332031 50.425781 35.328125 50.425781 35.328125 50.425781 C 35.328125 50.425781 35.328125 50.429688 35.328125 50.425781 C 35.328125 50.425781 35.332031 50.425781 35.332031 50.425781 C 35.328125 50.425781 35.328125 50.425781 35.328125 50.425781 C 35.296875 50.429688 35.230469 50.441406 35.144531 50.472656 C 34.976562 50.535156 34.765625 50.636719 34.546875 50.769531 C 34.121094 51.027344 33.683594 51.398438 33.28125 51.78125 C 32.460938 52.574219 31.761719 53.539062 31.175781 54.570312 C 30.011719 56.648438 29.351562 59.042969 29.171875 61.503906 C 28.992188 64.09375 28.871094 66.742188 28.566406 69.390625 C 28.40625 70.714844 28.222656 72.058594 27.8125 73.367188 C 27.609375 74.019531 27.347656 74.671875 26.960938 75.25 C 26.570312 75.824219 26.019531 76.308594 25.386719 76.511719 C 25.949219 76.152344 26.335938 75.621094 26.558594 75.035156 Z M 35.796875 50.425781 C 35.792969 50.429688 35.785156 50.425781 35.796875 50.425781 Z M 35.796875 50.425781 " fill-opacity="1" fill-rule="nonzero"/></g><g fill="#004aad" fill-opacity="1"><g transform="translate(66.80511, 39.336558)"><g><path d="M 4.453125 -11.953125 L 7.515625 -3.828125 L 7.546875 -3.828125 L 10.625 -11.953125 L 14.1875 -11.953125 L 14.1875 -10.5 L 13.59375 -10.453125 C 13.238281 -10.410156 13.066406 -10.195312 13.078125 -9.8125 L 13.53125 -1.578125 L 14.640625 -1.53125 L 14.640625 0 L 10.3125 0 L 10.3125 -1.453125 L 10.953125 -1.515625 C 11.273438 -1.535156 11.429688 -1.691406 11.421875 -1.984375 L 11.078125 -8.328125 L 11.046875 -8.328125 L 8.265625 -1.15625 L 6.5625 -1.15625 L 3.828125 -8.25 L 3.796875 -8.25 L 3.4375 -1.578125 L 4.609375 -1.53125 L 4.609375 0 L 0.359375 0 L 0.359375 -1.453125 L 1 -1.515625 C 1.28125 -1.535156 1.429688 -1.695312 1.453125 -2 L 1.9375 -10.359375 L 0.84375 -10.4375 L 0.84375 -11.953125 Z M 4.453125 -11.953125 "/></g></g></g><g fill="#004aad" fill-opacity="1"><g transform="translate(81.799924, 39.336558)"><g><path d="M 5.109375 -9.3125 C 6.003906 -9.3125 6.710938 -9.09375 7.234375 -8.65625 C 7.765625 -8.21875 8.03125 -7.601562 8.03125 -6.8125 C 8.03125 -6.289062 7.914062 -5.828125 7.6875 -5.421875 C 7.46875 -5.015625 7.1875 -4.695312 6.84375 -4.46875 C 6.507812 -4.25 6.101562 -4.066406 5.625 -3.921875 C 4.820312 -3.679688 3.914062 -3.5625 2.90625 -3.5625 C 2.945312 -2.925781 3.144531 -2.410156 3.5 -2.015625 C 3.863281 -1.628906 4.414062 -1.4375 5.15625 -1.4375 C 5.90625 -1.4375 6.648438 -1.703125 7.390625 -2.234375 L 8.078125 -0.765625 C 7.835938 -0.554688 7.429688 -0.335938 6.859375 -0.109375 C 6.285156 0.117188 5.632812 0.234375 4.90625 0.234375 C 3.445312 0.234375 2.375 -0.164062 1.6875 -0.96875 C 1.007812 -1.78125 0.671875 -2.894531 0.671875 -4.3125 C 0.671875 -5.726562 1.054688 -6.914062 1.828125 -7.875 C 2.609375 -8.832031 3.703125 -9.3125 5.109375 -9.3125 Z M 4.296875 -5.203125 C 4.734375 -5.285156 5.132812 -5.457031 5.5 -5.71875 C 5.875 -5.988281 6.0625 -6.3125 6.0625 -6.6875 C 6.0625 -7.414062 5.703125 -7.78125 4.984375 -7.78125 C 4.304688 -7.78125 3.785156 -7.515625 3.421875 -6.984375 C 3.066406 -6.453125 2.875 -5.816406 2.84375 -5.078125 C 3.375 -5.085938 3.859375 -5.128906 4.296875 -5.203125 Z M 4.296875 -5.203125 "/></g></g></g><g fill="#004aad" fill-opacity="1"><g transform="translate(90.501945, 39.336558)"><g><path d="M 5.109375 -9.3125 C 5.617188 -9.3125 6.109375 -9.238281 6.578125 -9.09375 L 6.578125 -10.921875 C 6.578125 -11.179688 6.421875 -11.320312 6.109375 -11.34375 L 5.34375 -11.40625 L 5.34375 -12.828125 L 8.6875 -12.828125 L 8.6875 -1.890625 C 8.695312 -1.609375 8.847656 -1.46875 9.140625 -1.46875 L 9.765625 -1.4375 L 9.765625 0 L 6.859375 0 L 6.859375 -1.0625 L 6.796875 -1.078125 C 6.253906 -0.203125 5.441406 0.234375 4.359375 0.234375 C 2.984375 0.234375 2.019531 -0.222656 1.46875 -1.140625 C 0.96875 -1.960938 0.71875 -2.972656 0.71875 -4.171875 C 0.71875 -5.734375 1.101562 -6.976562 1.875 -7.90625 C 2.65625 -8.84375 3.734375 -9.3125 5.109375 -9.3125 Z M 6.578125 -2.8125 L 6.578125 -7.46875 C 6.148438 -7.65625 5.695312 -7.75 5.21875 -7.75 C 4.425781 -7.75 3.847656 -7.429688 3.484375 -6.796875 C 3.117188 -6.160156 2.9375 -5.351562 2.9375 -4.375 C 2.9375 -2.351562 3.582031 -1.34375 4.875 -1.34375 C 5.363281 -1.34375 5.769531 -1.484375 6.09375 -1.765625 C 6.414062 -2.046875 6.578125 -2.394531 6.578125 -2.8125 Z M 6.578125 -2.8125 "/></g></g></g><g fill="#004aad" fill-opacity="1"><g transform="translate(100.714239, 39.336558)"><g><path d="M 8.671875 -8.6875 L 8.671875 -2 C 8.671875 -1.800781 8.703125 -1.664062 8.765625 -1.59375 C 8.828125 -1.53125 8.945312 -1.488281 9.125 -1.46875 L 9.6875 -1.4375 L 9.6875 0 L 6.828125 0 L 6.828125 -1.046875 L 6.78125 -1.0625 C 6.175781 -0.195312 5.351562 0.234375 4.3125 0.234375 C 3.09375 0.234375 2.1875 -0.15625 1.59375 -0.9375 C 1.007812 -1.71875 0.71875 -2.785156 0.71875 -4.140625 C 0.71875 -5.765625 1.113281 -7.03125 1.90625 -7.9375 C 2.695312 -8.851562 3.882812 -9.3125 5.46875 -9.3125 C 6.488281 -9.3125 7.554688 -9.101562 8.671875 -8.6875 Z M 6.578125 -2.859375 L 6.578125 -7.515625 C 6.242188 -7.671875 5.785156 -7.75 5.203125 -7.75 C 4.398438 -7.75 3.816406 -7.425781 3.453125 -6.78125 C 3.085938 -6.132812 2.90625 -5.273438 2.90625 -4.203125 C 2.90625 -2.265625 3.53125 -1.296875 4.78125 -1.296875 C 5.3125 -1.296875 5.742188 -1.453125 6.078125 -1.765625 C 6.410156 -2.085938 6.578125 -2.453125 6.578125 -2.859375 Z M 6.578125 -2.859375 "/></g></g></g><g fill="#004aad" fill-opacity="1"><g transform="translate(110.908553, 39.336558)"><g><path d="M 2.765625 -4.625 C 2.765625 -3.601562 2.957031 -2.8125 3.34375 -2.25 C 3.726562 -1.6875 4.28125 -1.40625 5 -1.40625 C 5.726562 -1.40625 6.445312 -1.660156 7.15625 -2.171875 L 7.9375 -0.796875 C 7.082031 -0.0976562 6.015625 0.25 4.734375 0.25 C 3.453125 0.25 2.441406 -0.148438 1.703125 -0.953125 C 0.960938 -1.765625 0.59375 -2.960938 0.59375 -4.546875 C 0.59375 -6.128906 1.015625 -7.316406 1.859375 -8.109375 C 2.703125 -8.910156 3.65625 -9.3125 4.71875 -9.3125 C 5.78125 -9.3125 6.765625 -9.066406 7.671875 -8.578125 L 7.671875 -6.234375 L 6.03125 -6.109375 L 6.03125 -6.984375 C 6.03125 -7.304688 5.910156 -7.503906 5.671875 -7.578125 C 5.441406 -7.660156 5.203125 -7.703125 4.953125 -7.703125 C 3.492188 -7.703125 2.765625 -6.675781 2.765625 -4.625 Z M 2.765625 -4.625 "/></g></g></g><g fill="#004aad" fill-opacity="1"><g transform="translate(119.376851, 39.336558)"><g><path d="M 0.609375 0 L 0.609375 -1.453125 L 1.203125 -1.515625 C 1.546875 -1.546875 1.71875 -1.710938 1.71875 -2.015625 L 1.71875 -10.375 L 0.703125 -10.4375 L 0.703125 -11.953125 L 5.625 -11.953125 C 7.382812 -11.953125 8.757812 -11.484375 9.75 -10.546875 C 10.738281 -9.617188 11.234375 -8.238281 11.234375 -6.40625 C 11.234375 -5.257812 11.082031 -4.265625 10.78125 -3.421875 C 10.488281 -2.578125 10.082031 -1.914062 9.5625 -1.4375 C 8.53125 -0.476562 7.25 0 5.71875 0 Z M 3.921875 -10.21875 L 3.921875 -1.71875 L 5.75 -1.71875 C 6.78125 -1.71875 7.582031 -2.085938 8.15625 -2.828125 C 8.738281 -3.578125 9.03125 -4.660156 9.03125 -6.078125 C 9.03125 -8.835938 7.859375 -10.21875 5.515625 -10.21875 Z M 3.921875 -10.21875 "/></g></g></g><g fill="#004aad" fill-opacity="1"><g transform="translate(131.333152, 39.336558)"><g><path d="M 5.109375 -9.3125 C 6.003906 -9.3125 6.710938 -9.09375 7.234375 -8.65625 C 7.765625 -8.21875 8.03125 -7.601562 8.03125 -6.8125 C 8.03125 -6.289062 7.914062 -5.828125 7.6875 -5.421875 C 7.46875 -5.015625 7.1875 -4.695312 6.84375 -4.46875 C 6.507812 -4.25 6.101562 -4.066406 5.625 -3.921875 C 4.820312 -3.679688 3.914062 -3.5625 2.90625 -3.5625 C 2.945312 -2.925781 3.144531 -2.410156 3.5 -2.015625 C 3.863281 -1.628906 4.414062 -1.4375 5.15625 -1.4375 C 5.90625 -1.4375 6.648438 -1.703125 7.390625 -2.234375 L 8.078125 -0.765625 C 7.835938 -0.554688 7.429688 -0.335938 6.859375 -0.109375 C 6.285156 0.117188 5.632812 0.234375 4.90625 0.234375 C 3.445312 0.234375 2.375 -0.164062 1.6875 -0.96875 C 1.007812 -1.78125 0.671875 -2.894531 0.671875 -4.3125 C 0.671875 -5.726562 1.054688 -6.914062 1.828125 -7.875 C 2.609375 -8.832031 3.703125 -9.3125 5.109375 -9.3125 Z M 4.296875 -5.203125 C 4.734375 -5.285156 5.132812 -5.457031 5.5 -5.71875 C 5.875 -5.988281 6.0625 -6.3125 6.0625 -6.6875 C 6.0625 -7.414062 5.703125 -7.78125 4.984375 -7.78125 C 4.304688 -7.78125 3.785156 -7.515625 3.421875 -6.984375 C 3.066406 -6.453125 2.875 -5.816406 2.84375 -5.078125 C 3.375 -5.085938 3.859375 -5.128906 4.296875 -5.203125 Z M 4.296875 -5.203125 "/></g></g></g><g fill="#004aad" fill-opacity="1"><g transform="translate(140.035173, 39.336558)"><g><path d="M 0.484375 -7.609375 L 0.484375 -9.046875 L 3.53125 -9.046875 L 3.53125 -7.875 C 3.84375 -8.320312 4.253906 -8.671875 4.765625 -8.921875 C 5.285156 -9.179688 5.84375 -9.3125 6.4375 -9.3125 C 7.351562 -9.3125 8.054688 -9.050781 8.546875 -8.53125 C 9.046875 -8.007812 9.296875 -7.226562 9.296875 -6.1875 L 9.296875 -1.5 L 10.328125 -1.4375 L 10.328125 0 L 6.046875 0 L 6.046875 -1.359375 L 6.640625 -1.421875 C 6.816406 -1.441406 6.945312 -1.488281 7.03125 -1.5625 C 7.113281 -1.644531 7.15625 -1.796875 7.15625 -2.015625 L 7.15625 -5.71875 C 7.15625 -6.375 7.050781 -6.859375 6.84375 -7.171875 C 6.644531 -7.492188 6.257812 -7.65625 5.6875 -7.65625 C 5.125 -7.65625 4.671875 -7.472656 4.328125 -7.109375 C 3.992188 -6.753906 3.828125 -6.332031 3.828125 -5.84375 L 3.828125 -1.5 L 4.859375 -1.4375 L 4.859375 0 L 0.578125 0 L 0.578125 -1.359375 L 1.171875 -1.421875 C 1.347656 -1.441406 1.476562 -1.488281 1.5625 -1.5625 C 1.644531 -1.644531 1.6875 -1.796875 1.6875 -2.015625 L 1.6875 -7 C 1.6875 -7.351562 1.535156 -7.535156 1.234375 -7.546875 Z M 0.484375 -7.609375 "/></g></g></g><g fill="#004aad" fill-opacity="1"><g transform="translate(150.822813, 39.336558)"><g><path d="M 2.59375 -10.953125 L 3.765625 -10.953125 L 3.765625 -9.046875 L 6.15625 -9.046875 L 5.96875 -7.53125 L 3.765625 -7.53125 L 3.765625 -2.8125 C 3.765625 -2.28125 3.859375 -1.910156 4.046875 -1.703125 C 4.234375 -1.492188 4.53125 -1.390625 4.9375 -1.390625 C 5.34375 -1.390625 5.75 -1.515625 6.15625 -1.765625 L 6.6875 -0.375 C 6.09375 0.0390625 5.332031 0.25 4.40625 0.25 C 3.863281 0.25 3.40625 0.179688 3.03125 0.046875 C 2.664062 -0.0859375 2.390625 -0.238281 2.203125 -0.40625 C 2.023438 -0.582031 1.890625 -0.832031 1.796875 -1.15625 C 1.703125 -1.476562 1.648438 -1.726562 1.640625 -1.90625 C 1.628906 -2.09375 1.625 -2.367188 1.625 -2.734375 L 1.625 -7.53125 L 0.34375 -7.53125 L 0.515625 -8.84375 C 1.078125 -8.894531 1.503906 -9.097656 1.796875 -9.453125 C 2.085938 -9.804688 2.351562 -10.304688 2.59375 -10.953125 Z M 2.59375 -10.953125 "/></g></g></g><g fill="#004aad" fill-opacity="1"><g transform="translate(66.80511, 55.402642)"><g><path d="M 3.90625 0.09375 C 3.257812 0.09375 2.679688 -0.046875 2.171875 -0.328125 C 1.660156 -0.609375 1.257812 -1.007812 0.96875 -1.53125 C 0.675781 -2.050781 0.53125 -2.664062 0.53125 -3.375 C 0.53125 -4.070312 0.675781 -4.679688 0.96875 -5.203125 C 1.257812 -5.734375 1.660156 -6.140625 2.171875 -6.421875 C 2.679688 -6.703125 3.257812 -6.84375 3.90625 -6.84375 C 4.34375 -6.84375 4.734375 -6.789062 5.078125 -6.6875 C 5.421875 -6.582031 5.765625 -6.429688 6.109375 -6.234375 C 6.253906 -6.160156 6.328125 -6.039062 6.328125 -5.875 C 6.328125 -5.769531 6.289062 -5.679688 6.21875 -5.609375 C 6.144531 -5.535156 6.050781 -5.5 5.9375 -5.5 C 5.875 -5.5 5.816406 -5.515625 5.765625 -5.546875 C 5.484375 -5.691406 5.207031 -5.800781 4.9375 -5.875 C 4.664062 -5.957031 4.351562 -6 4 -6 C 3.445312 -6 2.972656 -5.882812 2.578125 -5.65625 C 2.191406 -5.425781 1.898438 -5.113281 1.703125 -4.71875 C 1.503906 -4.320312 1.40625 -3.875 1.40625 -3.375 C 1.40625 -2.863281 1.503906 -2.410156 1.703125 -2.015625 C 1.898438 -1.617188 2.191406 -1.304688 2.578125 -1.078125 C 2.972656 -0.859375 3.445312 -0.75 4 -0.75 C 4.351562 -0.75 4.664062 -0.785156 4.9375 -0.859375 C 5.207031 -0.929688 5.484375 -1.046875 5.765625 -1.203125 C 5.816406 -1.222656 5.875 -1.234375 5.9375 -1.234375 C 6.050781 -1.234375 6.144531 -1.195312 6.21875 -1.125 C 6.289062 -1.0625 6.328125 -0.976562 6.328125 -0.875 C 6.328125 -0.707031 6.253906 -0.582031 6.109375 -0.5 C 5.765625 -0.3125 5.421875 -0.164062 5.078125 -0.0625 C 4.734375 0.0390625 4.34375 0.09375 3.90625 0.09375 Z M 3.90625 0.09375 "/></g></g></g><g fill="#004aad" fill-opacity="1"><g transform="translate(74.186963, 55.402642)"><g><path d="M 1.546875 0 C 1.378906 0 1.234375 -0.0546875 1.109375 -0.171875 C 0.992188 -0.296875 0.9375 -0.441406 0.9375 -0.609375 L 0.9375 -6.34375 C 0.9375 -6.46875 0.976562 -6.570312 1.0625 -6.65625 C 1.144531 -6.738281 1.25 -6.78125 1.375 -6.78125 C 1.488281 -6.78125 1.585938 -6.738281 1.671875 -6.65625 C 1.765625 -6.570312 1.8125 -6.46875 1.8125 -6.34375 L 1.8125 -0.875 L 4.96875 -0.875 C 5.09375 -0.875 5.195312 -0.832031 5.28125 -0.75 C 5.375 -0.664062 5.421875 -0.5625 5.421875 -0.4375 C 5.421875 -0.3125 5.375 -0.207031 5.28125 -0.125 C 5.195312 -0.0390625 5.09375 0 4.96875 0 Z M 1.546875 0 "/></g></g></g><g fill="#004aad" fill-opacity="1"><g transform="translate(80.420606, 55.402642)"><g><path d="M 1.375 0.046875 C 1.25 0.046875 1.144531 0.00390625 1.0625 -0.078125 C 0.976562 -0.160156 0.9375 -0.265625 0.9375 -0.390625 L 0.9375 -6.34375 C 0.9375 -6.46875 0.976562 -6.570312 1.0625 -6.65625 C 1.144531 -6.738281 1.25 -6.78125 1.375 -6.78125 C 1.488281 -6.78125 1.585938 -6.738281 1.671875 -6.65625 C 1.765625 -6.570312 1.8125 -6.46875 1.8125 -6.34375 L 1.8125 -0.390625 C 1.8125 -0.265625 1.765625 -0.160156 1.671875 -0.078125 C 1.585938 0.00390625 1.488281 0.046875 1.375 0.046875 Z M 1.375 -7.140625 C 1.300781 -7.140625 1.238281 -7.160156 1.1875 -7.203125 C 1.144531 -7.253906 1.125 -7.316406 1.125 -7.390625 C 1.125 -7.453125 1.144531 -7.515625 1.1875 -7.578125 L 1.6875 -8.453125 C 1.75 -8.566406 1.851562 -8.625 2 -8.625 C 2.101562 -8.625 2.1875 -8.59375 2.25 -8.53125 C 2.320312 -8.46875 2.359375 -8.382812 2.359375 -8.28125 C 2.359375 -8.1875 2.328125 -8.101562 2.265625 -8.03125 L 1.59375 -7.234375 C 1.53125 -7.171875 1.457031 -7.140625 1.375 -7.140625 Z M 1.375 -7.140625 "/></g></g></g><g fill="#004aad" fill-opacity="1"><g transform="translate(83.846428, 55.402642)"><g><path d="M 1.375 0.046875 C 1.25 0.046875 1.144531 0.00390625 1.0625 -0.078125 C 0.976562 -0.160156 0.9375 -0.265625 0.9375 -0.390625 L 0.9375 -6.15625 C 0.9375 -6.320312 0.992188 -6.46875 1.109375 -6.59375 C 1.234375 -6.71875 1.382812 -6.78125 1.5625 -6.78125 L 1.6875 -6.78125 C 1.894531 -6.78125 2.070312 -6.6875 2.21875 -6.5 L 5.9375 -1.125 L 5.9375 -6.34375 C 5.9375 -6.46875 5.976562 -6.570312 6.0625 -6.65625 C 6.144531 -6.738281 6.25 -6.78125 6.375 -6.78125 C 6.5 -6.78125 6.601562 -6.738281 6.6875 -6.65625 C 6.769531 -6.570312 6.8125 -6.46875 6.8125 -6.34375 L 6.8125 -0.578125 C 6.8125 -0.398438 6.75 -0.25 6.625 -0.125 C 6.5 -0.0078125 6.351562 0.046875 6.1875 0.046875 L 6.0625 0.046875 C 5.957031 0.046875 5.859375 0.0234375 5.765625 -0.015625 C 5.679688 -0.0664062 5.609375 -0.132812 5.546875 -0.21875 L 1.8125 -5.609375 L 1.8125 -0.390625 C 1.8125 -0.265625 1.765625 -0.160156 1.671875 -0.078125 C 1.585938 0.00390625 1.488281 0.046875 1.375 0.046875 Z M 1.375 0.046875 "/></g></g></g><g fill="#004aad" fill-opacity="1"><g transform="translate(92.270367, 55.402642)"><g><path d="M 1.375 0.046875 C 1.25 0.046875 1.144531 0.00390625 1.0625 -0.078125 C 0.976562 -0.160156 0.9375 -0.265625 0.9375 -0.390625 L 0.9375 -6.34375 C 0.9375 -6.46875 0.976562 -6.570312 1.0625 -6.65625 C 1.144531 -6.738281 1.25 -6.78125 1.375 -6.78125 C 1.488281 -6.78125 1.585938 -6.738281 1.671875 -6.65625 C 1.765625 -6.570312 1.8125 -6.46875 1.8125 -6.34375 L 1.8125 -0.390625 C 1.8125 -0.265625 1.765625 -0.160156 1.671875 -0.078125 C 1.585938 0.00390625 1.488281 0.046875 1.375 0.046875 Z M 1.375 0.046875 "/></g></g></g><g fill="#004aad" fill-opacity="1"><g transform="translate(95.69619, 55.402642)"><g><path d="M 3.90625 0.09375 C 3.257812 0.09375 2.679688 -0.046875 2.171875 -0.328125 C 1.660156 -0.609375 1.257812 -1.007812 0.96875 -1.53125 C 0.675781 -2.050781 0.53125 -2.664062 0.53125 -3.375 C 0.53125 -4.070312 0.675781 -4.679688 0.96875 -5.203125 C 1.257812 -5.734375 1.660156 -6.140625 2.171875 -6.421875 C 2.679688 -6.703125 3.257812 -6.84375 3.90625 -6.84375 C 4.34375 -6.84375 4.734375 -6.789062 5.078125 -6.6875 C 5.421875 -6.582031 5.765625 -6.429688 6.109375 -6.234375 C 6.253906 -6.160156 6.328125 -6.039062 6.328125 -5.875 C 6.328125 -5.769531 6.289062 -5.679688 6.21875 -5.609375 C 6.144531 -5.535156 6.050781 -5.5 5.9375 -5.5 C 5.875 -5.5 5.816406 -5.515625 5.765625 -5.546875 C 5.484375 -5.691406 5.207031 -5.800781 4.9375 -5.875 C 4.664062 -5.957031 4.351562 -6 4 -6 C 3.445312 -6 2.972656 -5.882812 2.578125 -5.65625 C 2.191406 -5.425781 1.898438 -5.113281 1.703125 -4.71875 C 1.503906 -4.320312 1.40625 -3.875 1.40625 -3.375 C 1.40625 -2.863281 1.503906 -2.410156 1.703125 -2.015625 C 1.898438 -1.617188 2.191406 -1.304688 2.578125 -1.078125 C 2.972656 -0.859375 3.445312 -0.75 4 -0.75 C 4.351562 -0.75 4.664062 -0.785156 4.9375 -0.859375 C 5.207031 -0.929688 5.484375 -1.046875 5.765625 -1.203125 C 5.816406 -1.222656 5.875 -1.234375 5.9375 -1.234375 C 6.050781 -1.234375 6.144531 -1.195312 6.21875 -1.125 C 6.289062 -1.0625 6.328125 -0.976562 6.328125 -0.875 C 6.328125 -0.707031 6.253906 -0.582031 6.109375 -0.5 C 5.765625 -0.3125 5.421875 -0.164062 5.078125 -0.0625 C 4.734375 0.0390625 4.34375 0.09375 3.90625 0.09375 Z M 3.90625 0.09375 "/></g></g></g><g fill="#004aad" fill-opacity="1"><g transform="translate(103.078043, 55.402642)"><g><path d="M 0.921875 0.046875 C 0.785156 0.046875 0.675781 0.00390625 0.59375 -0.078125 C 0.519531 -0.160156 0.484375 -0.265625 0.484375 -0.390625 C 0.484375 -0.441406 0.5 -0.503906 0.53125 -0.578125 L 3 -6.390625 C 3.050781 -6.503906 3.117188 -6.597656 3.203125 -6.671875 C 3.296875 -6.742188 3.410156 -6.78125 3.546875 -6.78125 L 3.65625 -6.78125 C 3.789062 -6.78125 3.90625 -6.742188 4 -6.671875 C 4.09375 -6.597656 4.160156 -6.503906 4.203125 -6.390625 L 6.671875 -0.578125 C 6.703125 -0.503906 6.71875 -0.441406 6.71875 -0.390625 C 6.71875 -0.265625 6.675781 -0.160156 6.59375 -0.078125 C 6.519531 0.00390625 6.414062 0.046875 6.28125 0.046875 C 6.195312 0.046875 6.113281 0.0234375 6.03125 -0.015625 C 5.957031 -0.0664062 5.90625 -0.132812 5.875 -0.21875 L 5.25 -1.734375 L 1.953125 -1.734375 L 1.328125 -0.21875 C 1.296875 -0.132812 1.238281 -0.0664062 1.15625 -0.015625 C 1.082031 0.0234375 1.003906 0.046875 0.921875 0.046875 Z M 2.296875 -2.53125 L 4.90625 -2.53125 L 3.609375 -5.671875 Z M 2.296875 -2.53125 "/></g></g></g><g fill="#004aad" fill-opacity="1"><g transform="translate(110.951987, 55.402642)"><g/></g></g><g fill="#004aad" fill-opacity="1"><g transform="translate(114.13659, 55.402642)"><g><path d="M 1.375 0 C 1.25 0 1.144531 -0.0390625 1.0625 -0.125 C 0.976562 -0.207031 0.9375 -0.3125 0.9375 -0.4375 L 0.9375 -6.296875 C 0.9375 -6.421875 0.976562 -6.523438 1.0625 -6.609375 C 1.144531 -6.691406 1.25 -6.734375 1.375 -6.734375 L 3.3125 -6.734375 C 4.039062 -6.734375 4.660156 -6.570312 5.171875 -6.25 C 5.691406 -5.925781 6.078125 -5.503906 6.328125 -4.984375 C 6.585938 -4.472656 6.71875 -3.9375 6.71875 -3.375 C 6.71875 -2.800781 6.585938 -2.253906 6.328125 -1.734375 C 6.078125 -1.222656 5.691406 -0.804688 5.171875 -0.484375 C 4.660156 -0.160156 4.039062 0 3.3125 0 Z M 3.203125 -0.828125 C 3.734375 -0.828125 4.195312 -0.929688 4.59375 -1.140625 C 4.988281 -1.359375 5.296875 -1.65625 5.515625 -2.03125 C 5.742188 -2.414062 5.859375 -2.863281 5.859375 -3.375 C 5.859375 -3.875 5.742188 -4.3125 5.515625 -4.6875 C 5.296875 -5.070312 4.988281 -5.375 4.59375 -5.59375 C 4.195312 -5.8125 3.734375 -5.921875 3.203125 -5.921875 L 1.8125 -5.921875 L 1.8125 -0.828125 Z M 3.203125 -0.828125 "/></g></g></g><g fill="#004aad" fill-opacity="1"><g transform="translate(122.058787, 55.402642)"><g><path d="M 1.375 0 C 1.25 0 1.144531 -0.0390625 1.0625 -0.125 C 0.976562 -0.207031 0.9375 -0.3125 0.9375 -0.4375 L 0.9375 -6.296875 C 0.9375 -6.421875 0.976562 -6.523438 1.0625 -6.609375 C 1.144531 -6.691406 1.25 -6.734375 1.375 -6.734375 L 5.25 -6.734375 C 5.363281 -6.734375 5.457031 -6.691406 5.53125 -6.609375 C 5.613281 -6.535156 5.65625 -6.441406 5.65625 -6.328125 C 5.65625 -6.210938 5.613281 -6.113281 5.53125 -6.03125 C 5.457031 -5.957031 5.363281 -5.921875 5.25 -5.921875 L 1.8125 -5.921875 L 1.8125 -3.78125 L 4.890625 -3.78125 C 5.003906 -3.78125 5.101562 -3.738281 5.1875 -3.65625 C 5.269531 -3.582031 5.3125 -3.488281 5.3125 -3.375 C 5.3125 -3.257812 5.269531 -3.160156 5.1875 -3.078125 C 5.101562 -3.003906 5.003906 -2.96875 4.890625 -2.96875 L 1.8125 -2.96875 L 1.8125 -0.828125 L 5.25 -0.828125 C 5.363281 -0.828125 5.457031 -0.785156 5.53125 -0.703125 C 5.613281 -0.617188 5.65625 -0.519531 5.65625 -0.40625 C 5.65625 -0.289062 5.613281 -0.191406 5.53125 -0.109375 C 5.457031 -0.0351562 5.363281 0 5.25 0 Z M 1.375 0 "/></g></g></g><g fill="#004aad" fill-opacity="1"><g transform="translate(128.890654, 55.402642)"><g><path d="M 1.375 0.046875 C 1.25 0.046875 1.144531 0.00390625 1.0625 -0.078125 C 0.976562 -0.160156 0.9375 -0.265625 0.9375 -0.390625 L 0.9375 -6.15625 C 0.9375 -6.320312 0.992188 -6.46875 1.109375 -6.59375 C 1.234375 -6.71875 1.382812 -6.78125 1.5625 -6.78125 L 1.6875 -6.78125 C 1.894531 -6.78125 2.070312 -6.6875 2.21875 -6.5 L 5.9375 -1.125 L 5.9375 -6.34375 C 5.9375 -6.46875 5.976562 -6.570312 6.0625 -6.65625 C 6.144531 -6.738281 6.25 -6.78125 6.375 -6.78125 C 6.5 -6.78125 6.601562 -6.738281 6.6875 -6.65625 C 6.769531 -6.570312 6.8125 -6.46875 6.8125 -6.34375 L 6.8125 -0.578125 C 6.8125 -0.398438 6.75 -0.25 6.625 -0.125 C 6.5 -0.0078125 6.351562 0.046875 6.1875 0.046875 L 6.0625 0.046875 C 5.957031 0.046875 5.859375 0.0234375 5.765625 -0.015625 C 5.679688 -0.0664062 5.609375 -0.132812 5.546875 -0.21875 L 1.8125 -5.609375 L 1.8125 -0.390625 C 1.8125 -0.265625 1.765625 -0.160156 1.671875 -0.078125 C 1.585938 0.00390625 1.488281 0.046875 1.375 0.046875 Z M 1.375 0.046875 "/></g></g></g><g fill="#004aad" fill-opacity="1"><g transform="translate(137.31459, 55.402642)"><g><path d="M 2.9375 0.046875 C 2.8125 0.046875 2.707031 0.00390625 2.625 -0.078125 C 2.539062 -0.160156 2.5 -0.265625 2.5 -0.390625 L 2.5 -5.921875 L 0.53125 -5.921875 C 0.414062 -5.921875 0.316406 -5.957031 0.234375 -6.03125 C 0.160156 -6.113281 0.125 -6.210938 0.125 -6.328125 C 0.125 -6.441406 0.160156 -6.535156 0.234375 -6.609375 C 0.316406 -6.691406 0.414062 -6.734375 0.53125 -6.734375 L 5.34375 -6.734375 C 5.457031 -6.734375 5.550781 -6.691406 5.625 -6.609375 C 5.707031 -6.535156 5.75 -6.441406 5.75 -6.328125 C 5.75 -6.210938 5.707031 -6.113281 5.625 -6.03125 C 5.550781 -5.957031 5.457031 -5.921875 5.34375 -5.921875 L 3.375 -5.921875 L 3.375 -0.390625 C 3.375 -0.265625 3.332031 -0.160156 3.25 -0.078125 C 3.164062 0.00390625 3.0625 0.046875 2.9375 0.046875 Z M 2.9375 0.046875 "/></g></g></g><g fill="#004aad" fill-opacity="1"><g transform="translate(143.866645, 55.402642)"><g><path d="M 0.921875 0.046875 C 0.785156 0.046875 0.675781 0.00390625 0.59375 -0.078125 C 0.519531 -0.160156 0.484375 -0.265625 0.484375 -0.390625 C 0.484375 -0.441406 0.5 -0.503906 0.53125 -0.578125 L 3 -6.390625 C 3.050781 -6.503906 3.117188 -6.597656 3.203125 -6.671875 C 3.296875 -6.742188 3.410156 -6.78125 3.546875 -6.78125 L 3.65625 -6.78125 C 3.789062 -6.78125 3.90625 -6.742188 4 -6.671875 C 4.09375 -6.597656 4.160156 -6.503906 4.203125 -6.390625 L 6.671875 -0.578125 C 6.703125 -0.503906 6.71875 -0.441406 6.71875 -0.390625 C 6.71875 -0.265625 6.675781 -0.160156 6.59375 -0.078125 C 6.519531 0.00390625 6.414062 0.046875 6.28125 0.046875 C 6.195312 0.046875 6.113281 0.0234375 6.03125 -0.015625 C 5.957031 -0.0664062 5.90625 -0.132812 5.875 -0.21875 L 5.25 -1.734375 L 1.953125 -1.734375 L 1.328125 -0.21875 C 1.296875 -0.132812 1.238281 -0.0664062 1.15625 -0.015625 C 1.082031 0.0234375 1.003906 0.046875 0.921875 0.046875 Z M 2.296875 -2.53125 L 4.90625 -2.53125 L 3.609375 -5.671875 Z M 2.296875 -2.53125 "/></g></g></g><g fill="#004aad" fill-opacity="1"><g transform="translate(151.740587, 55.402642)"><g><path d="M 1.546875 0 C 1.378906 0 1.234375 -0.0546875 1.109375 -0.171875 C 0.992188 -0.296875 0.9375 -0.441406 0.9375 -0.609375 L 0.9375 -6.34375 C 0.9375 -6.46875 0.976562 -6.570312 1.0625 -6.65625 C 1.144531 -6.738281 1.25 -6.78125 1.375 -6.78125 C 1.488281 -6.78125 1.585938 -6.738281 1.671875 -6.65625 C 1.765625 -6.570312 1.8125 -6.46875 1.8125 -6.34375 L 1.8125 -0.875 L 4.96875 -0.875 C 5.09375 -0.875 5.195312 -0.832031 5.28125 -0.75 C 5.375 -0.664062 5.421875 -0.5625 5.421875 -0.4375 C 5.421875 -0.3125 5.375 -0.207031 5.28125 -0.125 C 5.195312 -0.0390625 5.09375 0 4.96875 0 Z M 1.546875 0 "/></g></g></g></svg>